<svg width="18" height="18" viewBox="0 0 18 18" fill="none" xmlns="http://www.w3.org/2000/svg">
<path d="M17.8198 16.9114L11.4157 10.5074C13.6651 7.75633 13.2584 3.70274 10.5074 1.45338C7.75635 -0.795983 3.70272 -0.389277 1.45336 2.36172C-0.796003 5.11272 -0.389296 9.16634 2.3617 11.4157C4.73129 13.3532 8.13776 13.3532 10.5074 11.4157L16.9114 17.8198C17.1666 18.0663 17.5733 18.0592 17.8198 17.804C18.0602 17.555 18.0602 17.1604 17.8198 16.9114ZM6.4448 11.584C3.60783 11.5808 1.30878 9.28179 1.30562 6.44482C1.30562 3.60653 3.60652 1.30564 6.4448 1.30564C9.28309 1.30564 11.584 3.60653 11.584 6.44482C11.584 9.2831 9.28309 11.584 6.4448 11.584Z" fill="#C6C6C6"/>
</svg>
