<svg width="13" height="8" viewBox="0 0 13 8" fill="none" xmlns="http://www.w3.org/2000/svg">
<path fill-rule="evenodd" clip-rule="evenodd" d="M0.219845 1.22006C0.360498 1.07945 0.551238 1.00046 0.750121 1.00046C0.949004 1.00046 1.13974 1.07945 1.2804 1.22006L6.00038 5.94004L10.7204 1.22006C10.7896 1.14842 10.8723 1.09128 10.9638 1.05197C11.0553 1.01267 11.1538 0.991975 11.2533 0.99111C11.3529 0.990244 11.4517 1.00922 11.5439 1.04693C11.636 1.08465 11.7198 1.14034 11.7902 1.21076C11.8606 1.28119 11.9163 1.36493 11.954 1.45711C11.9918 1.54928 12.0107 1.64805 12.0099 1.74764C12.009 1.84723 11.9883 1.94565 11.949 2.03715C11.9097 2.12866 11.8526 2.21142 11.7809 2.28061L6.53066 7.53087C6.39 7.67148 6.19926 7.75047 6.00038 7.75047C5.8015 7.75047 5.61076 7.67148 5.47011 7.53087L0.219845 2.28061C0.0792347 2.13996 0.000244141 1.94922 0.000244141 1.75034C0.000244141 1.55145 0.0792347 1.36071 0.219845 1.22006Z" fill="#F8F8F8"/>
</svg>
