<svg width="136" height="191" viewBox="0 0 136 191" fill="none" xmlns="http://www.w3.org/2000/svg">
<path d="M123.3 144.829L135.1 146.029L123.3 115.429V144.829Z" fill="#1CA8BA"/>
<path d="M96.7 72.5288C94.2 80.3288 91.7 84.4288 91.7 84.4288L89.9 65.4288C89.9 65.4288 82.9 46.5288 67.7 31.4288C52.5 16.3288 57.2 4.12881 67.7 0.628807C72 -0.771193 78.3 0.0288062 84.7 4.42881C93.7 10.6288 102.1 22.8288 101.8 39.5288C101.6 53.7288 99.1 64.8288 96.7 72.5288Z" fill="white"/>
<path d="M114.8 104.529C105.1 126.529 58.7 135.829 43 110.029C42.5 109.229 42 108.429 41.6 107.629L41.3 107.129C38.1 101.129 36.7 95.7288 36.4 91.0288C35.6 77.4288 44.3 69.8288 44.6 69.6288C44.6 69.6288 41.3 68.5288 36.1 66.4288C30.9 64.3288 23.7 61.1288 16 57.1288C13.8 55.9288 11.7 54.6288 9.79999 53.1288C0.899991 46.0288 -2.10002 33.5288 2.19998 24.0288C4.39998 19.1288 8.89998 15.4288 14.2 14.3288C38.3 9.52878 54.9 59.1288 54.9 59.1288C111.3 40.8288 124.4 82.9288 114.8 104.529Z" fill="white"/>
<path d="M98.5 93.0288C97.6 96.6288 95.9 102.529 93.2 107.029C93.1 107.129 93.1 107.229 93 107.329C93 107.329 93 107.429 92.9 107.429C90.4 111.429 87.3 114.229 82.9 112.429C74 108.829 72.9 97.5288 72.9 93.1288C74.9 93.5288 77.6 93.7288 80.3 93.5288C83.2 93.2288 86.1 92.4288 88 90.7288C89 89.8288 89.9 88.2288 90.1 86.8288C90.1 86.8288 90.7 88.7288 92 90.3288C93.2 91.8288 95.2 93.3288 98.5 93.0288Z" fill="#F1947F"/>
<path d="M98.3 93.4288C97.2 99.7288 93.5 106.529 92.4 108.329C92.3 108.429 92.3 108.529 92.2 108.629C92.2 108.629 92.2 108.729 92.1 108.729C89.6 93.8288 78.5 93.6288 78.5 93.6288C78.1 93.1288 78.9 92.9288 79 93.6288C82 93.3288 85.2 92.9288 87.1 91.1288C88.1 90.2288 90.5 88.5288 90.7 87.0288C90.7 87.0288 89.9 89.0288 91.2 90.7288C92.5 92.3288 95 93.6288 98.3 93.4288Z" fill="#68352E"/>
<path d="M123.4 115.429H35.2V190.329H123.4V115.429Z" fill="white"/>
<path d="M105.5 115.429V182.629L80 159.229L53 183.229V115.429H105.5Z" fill="#F1947F"/>
<path d="M80.2 135.929C80.6 135.529 81 135.129 81.4 134.829C82.2 134.129 83.1 133.629 84.2 133.329C85.7 132.829 87.2 132.929 88.7 133.529C90.4 134.229 91.4 135.529 91.8 137.129C92 137.729 92 138.429 91.9 139.029C91.8 140.429 91.2 141.629 90.5 142.829C89.7 144.129 88.7 145.229 87.6 146.229C85.5 148.129 83.2 149.829 80.7 151.229C80.5 151.329 80.4 151.429 80.2 151.529C79.2 151.029 78.3 150.429 77.4 149.929C76.3 149.229 75.3 148.529 74.3 147.729C72.6 146.329 71.1 144.829 69.9 143.029C69.3 142.029 68.8 141.029 68.6 139.929C68.4 138.729 68.4 137.429 69 136.329C69.8 134.829 71.1 133.829 72.9 133.429C74.5 133.029 76 133.329 77.4 134.029C78.4 134.529 79.3 135.229 80 136.029C80 135.829 80 135.829 80.2 135.929C80.1 135.929 80.1 135.929 80.2 135.929Z" fill="white"/>
<path d="M55.3 109.229C55.3 109.229 63.1 115.429 80.6 115.429H56.7C56.7 115.429 55.7 111.429 55.3 109.229Z" fill="#68352E"/>
<path d="M103.3 110.629C103.3 110.629 98.7 115.429 89.1 115.429L106 115.329L103.3 110.629Z" fill="#68352E"/>
<path d="M56.6 117.129C55.8 119.329 54.4 121.229 53.1 122.429C50 125.329 44.1 125.529 38.4 119.329C34.7 115.329 38.5 110.329 41.6 107.429L43 108.329C43 108.329 48.1 105.929 45 104.929L55.7 107.629C57.8 110.929 57.7 114.329 56.6 117.129Z" fill="white"/>
<path d="M123.7 118.129C123.5 118.329 123.2 118.629 122.9 118.929C116.1 125.129 109.1 123.729 104.5 113.629C103.9 112.229 103.3 110.729 102.8 108.929L113.8 105.729C118.2 105.829 130.3 110.929 123.7 118.129Z" fill="white"/>
<path d="M56.7 117.029V117.229C55.9 119.429 54.5 121.329 53.2 122.529C50.1 125.429 44.2 125.629 38.5 119.429C38.4 119.429 50.1 127.329 56.7 117.029Z" fill="#68352E"/>
<path d="M123.6 118.129C123.4 118.329 123.1 118.629 122.9 118.929C116.1 125.129 109.1 123.729 104.5 113.629C104.9 114.229 111.6 123.029 123.6 118.129Z" fill="#68352E"/>
<path d="M44.6 104.929C44.6 104.929 43.2 105.929 41.5 107.529L41.2 107.029C38 101.029 36.6 95.6288 36.3 90.9288C37.4 97.2288 39.7 100.529 44.6 104.929Z" fill="#68352E"/>
<path d="M70.7 92.3288C76.6 93.3288 88.2 93.5288 89.4 87.5288L85.2 82.6288C85.2 82.6288 79.8 81.5288 74.2 85.2288C74.2 85.2288 79.8 80.5288 85 81.3288C85 81.3288 89 77.4288 93.7 81.3288C93.7 81.3288 98.4 78.8288 102 83.8288C102 83.8288 98.4 80.0288 93.4 82.7288L90.9 87.4288C90.9 87.4288 92.3 94.6288 102.7 91.4288C102.7 91.4288 97.4 96.1288 90.3 90.5288C90.1 90.7288 84.2 96.8288 70.7 92.3288Z" fill="#68352E"/>
<path d="M86 82.0288C86 82.0288 88.9 85.7288 89.4 86.2288C89.9 86.7288 90.6 86.5288 91.1 85.5288C91.6 84.5288 93.1 82.3288 92.8 82.0288C92.4 81.7288 89.8 79.3288 86 82.0288Z" fill="#F1947F"/>
<path d="M63.4 81.7288C63.4 81.7288 69.4 68.7288 78.2 79.5288C78.2 79.5288 70.8 74.3288 63.4 81.7288Z" fill="#68352E"/>
<path d="M95.3 78.7288C95.3 78.7288 100 69.7288 106 77.9288C106 77.9288 100.8 74.3288 95.3 78.7288Z" fill="#68352E"/>
<path d="M35.2 115.429L18.5 122.629L20.9 179.229L35.2 190.429" fill="#1CA8BA"/>
<path d="M11.1 154.229L1.7 138.529L16.6 115.629H35.2L11.1 154.229Z" fill="white"/>
<path d="M44.6 69.7288C44.6 69.7288 30.4 64.9288 13.7 56.2288C13.7 56.2288 13.7 56.2288 13.6 56.2288C9.39998 54.0288 6.2 50.4288 4.5 46.0288C1.5 38.6288 0.79999 33.4288 8.29999 30.9288C22.3 26.4288 36.3 51.8288 44.6 69.7288Z" fill="#F1947F"/>
<path d="M100 59.4288C101.4 46.6288 88.2 24.2288 82.1 15.2288C78.1 9.32882 78 5.92882 83.7 3.72882C91.7 8.12882 99.9 17.5288 101.2 31.4288C102.4 43.3288 101.3 52.8288 100 59.4288Z" fill="#F1947F"/>
</svg>
