<svg width="175" height="51" viewBox="0 0 175 51" fill="none" xmlns="http://www.w3.org/2000/svg">
<path d="M87.5 51C135.825 51 175 49.0366 175 46.6146C175 44.1926 135.825 42.2292 87.5 42.2292C39.1751 42.2292 0 44.1926 0 46.6146C0 49.0366 39.1751 51 87.5 51Z" fill="#1CA8BA"/>
<path d="M26.9395 46.425H29.7215C30.0306 46.425 30.3159 46.1879 30.3397 45.8798L31.5761 26.7973H29.2459C29.0795 26.7973 28.9131 26.8684 28.7942 26.9869L20.6624 35.5444C20.4008 35.8289 19.9491 35.8052 19.7113 35.497L13.125 26.7973H11.0326C10.4382 26.7973 9.96265 27.2714 9.96265 27.864V45.5953C9.96265 46.0694 10.3431 46.4487 10.8186 46.4487H13.553C13.9097 46.4487 14.195 46.1642 14.195 45.8086V41.281L14.0999 36.706C14.0999 36.137 14.7894 35.8526 15.1936 36.2556L19.9491 41.1151C20.0679 41.2336 20.2344 41.3047 20.4008 41.3047H22.3506L24.966 37.6067C25.2751 37.0141 26.1787 37.2275 26.1549 37.9149L26.0598 41.3047V45.5479C26.0598 46.0457 26.464 46.425 26.9395 46.425Z" fill="#F1BCB8"/>
<path d="M42.5611 34.6436L41.8716 33.8851C41.7289 33.8376 41.61 33.7428 41.5387 33.6243L37.5441 27.1529C37.4253 26.9632 37.235 26.8447 36.9973 26.8447H33.8825C33.2643 26.8447 32.8838 27.5084 33.1929 28.0536L38.9708 37.7727C39.0183 37.8675 39.0659 37.986 39.0659 38.1045V45.619C39.0659 46.0694 39.4225 46.4487 39.8981 46.4487H43.5122C43.8689 46.4487 44.1542 46.1642 44.1542 45.8086V38.1282C44.1542 38.0097 44.2018 37.8912 44.2493 37.7727L44.2255 36.54C44.6535 35.8763 43.5598 35.4733 43.0367 36.0659V35.1177C42.8702 35.3074 42.7989 34.7384 42.5611 34.6436Z" fill="#F1BCB8"/>
<path d="M83.5768 27.9351V45.3108C83.5768 45.9272 84.0761 46.4013 84.6705 46.4013H86.6916C87.3098 46.4013 87.7853 45.9035 87.7853 45.3108V27.9351C87.7853 27.3188 87.286 26.8447 86.6916 26.8447H84.6705C84.0523 26.8447 83.5768 27.3425 83.5768 27.9351Z" fill="#F1BCB8"/>
<path d="M100.245 34.857C98.2948 34.6673 96.4877 34.2407 96.4877 32.4154C96.4877 31.8465 96.7255 30.0212 99.9116 30.0212C101.576 30.0212 102.765 30.6375 103.193 31.7042C103.288 31.9413 103.526 32.1072 103.787 32.1072H106.641C107.045 32.1072 107.354 31.7279 107.259 31.3487C106.593 28.4092 103.787 26.5366 99.8641 26.5366C95.3464 26.5366 92.3029 28.8359 92.3029 32.2494C92.3029 35.8526 94.5618 37.7964 99.4361 38.3179C101.695 38.5549 103.716 38.9342 103.716 40.7832C103.716 42.324 102.337 43.2485 100.031 43.2485C98.1283 43.2485 96.8206 42.5848 96.3688 41.3995C96.2737 41.1625 96.0359 40.9966 95.7744 40.9966H92.826C92.4456 40.9966 92.1365 41.3521 92.2078 41.7314C92.8022 44.9553 95.6079 46.7806 100.102 46.7806C104.833 46.7806 108.02 44.4338 108.02 40.9491C107.996 38.4364 107.116 35.5207 100.245 34.857Z" fill="#F1BCB8"/>
<path d="M127.897 45.4294V27.864C127.897 27.2951 127.446 26.8447 126.875 26.8447H124.688C124.117 26.8447 123.665 27.2951 123.665 27.864V33.5058C123.665 34.0747 123.213 34.5251 122.643 34.5251H116.389C115.819 34.5251 115.367 34.0747 115.367 33.5058V27.864C115.367 27.2951 114.915 26.8447 114.344 26.8447H112.157C111.586 26.8447 111.135 27.2951 111.135 27.864V45.4294C111.135 45.9983 111.586 46.4487 112.157 46.4487H114.344C114.915 46.4487 115.367 45.9983 115.367 45.4294V39.1713C115.367 38.6023 115.819 38.1519 116.389 38.1519H122.643C123.213 38.1519 123.665 38.6023 123.665 39.1713V45.4294C123.665 45.9983 124.117 46.4487 124.688 46.4487H126.875C127.446 46.425 127.897 45.9746 127.897 45.4294Z" fill="#F1BCB8"/>
<path d="M133.818 42.3477C132.32 42.3477 131.298 43.2248 131.298 44.5522C131.298 45.9034 132.272 46.7568 133.818 46.7568H135.91C136.315 46.7568 136.624 46.3775 136.529 45.9745C136.433 45.5478 136.315 45.0263 136.315 44.5522C136.315 44.1255 136.433 43.5803 136.529 43.1299C136.624 42.727 136.315 42.3477 135.91 42.3477H133.818Z" fill="#F1BCB8"/>
<path d="M139.62 27.6981V45.5479C139.62 46.022 140 46.4013 140.475 46.4013H142.972C143.448 46.4013 143.828 46.022 143.828 45.5479V27.6981C143.828 27.224 143.448 26.8447 142.972 26.8447H140.475C140.024 26.8447 139.62 27.224 139.62 27.6981Z" fill="#F1BCB8"/>
<path d="M156.953 34.857C155.003 34.6673 153.196 34.2407 153.196 32.4154C153.196 31.8465 153.434 30.0212 156.62 30.0212C158.285 30.0212 159.474 30.6375 159.902 31.7042C159.997 31.9413 160.234 32.1072 160.496 32.1072H163.349C163.753 32.1072 164.063 31.7279 163.967 31.3487C163.302 28.4092 160.496 26.5366 156.573 26.5366C152.055 26.5366 149.012 28.8359 149.012 32.2494C149.012 35.8526 151.27 37.7964 156.145 38.3179C158.404 38.5549 160.425 38.9342 160.425 40.7832C160.425 42.324 159.046 43.2485 156.739 43.2485C154.837 43.2485 153.529 42.5848 153.077 41.3995C152.982 41.1625 152.745 40.9966 152.483 40.9966H149.558C149.178 40.9966 148.869 41.3521 148.94 41.7314C149.535 44.9553 152.34 46.7806 156.834 46.7806C161.566 46.7806 164.752 44.4338 164.752 40.9491C164.728 38.4364 163.849 35.5207 156.953 34.857Z" fill="#F1BCB8"/>
<path d="M78.1555 26.7973L83.0298 35.7341L78.1555 33.7902V26.7973Z" fill="#FC7D68"/>
<path d="M78.1793 26.7973H54.9966V46.425H78.1793V26.7973Z" fill="white"/>
<path d="M66.8139 32.1546C66.909 32.0598 67.0279 31.9413 67.1468 31.8702C67.3607 31.7042 67.5985 31.562 67.8838 31.4672C68.2881 31.3486 68.6685 31.3723 69.0489 31.5383C69.4769 31.7279 69.7622 32.0598 69.8811 32.4865C69.9287 32.6524 69.9287 32.8183 69.9049 32.9843C69.8574 33.3399 69.7385 33.6717 69.5482 33.9799C69.3343 34.3118 69.0727 34.5962 68.7874 34.8807C68.2405 35.3785 67.6223 35.8052 66.9565 36.1844C66.909 36.2082 66.8614 36.2319 66.8139 36.2556C66.5523 36.137 66.3145 35.9711 66.0768 35.8289C65.7915 35.6392 65.5299 35.4496 65.2684 35.2362C64.8166 34.8807 64.4124 34.4777 64.1033 34.0036C63.9368 33.7428 63.818 33.4821 63.7704 33.1739C63.6991 32.8421 63.7228 32.5339 63.8655 32.2257C64.0795 31.8227 64.4124 31.562 64.8879 31.4672C65.3159 31.3723 65.6963 31.4435 66.0768 31.6331C66.3383 31.7753 66.5523 31.9413 66.7663 32.1546C66.7663 32.1072 66.7901 32.1309 66.8139 32.1546C66.7901 32.1546 66.8139 32.1546 66.8139 32.1546Z" fill="white"/>
<path d="M54.9967 26.7973L50.5979 28.67L51.2399 43.5093L54.9967 46.425" fill="#FC7D68"/>
<path d="M29.2222 46.4249H31.5999C32.0992 46.4249 32.5272 46.022 32.5272 45.5005V27.6981C32.5272 27.2002 32.123 26.7736 31.5999 26.7736C31.3384 26.7736 31.1006 26.8684 30.9342 27.058L23.0401 35.3547C22.6835 35.734 22.0653 35.734 21.7086 35.3547L13.7908 27.058C13.6244 26.8684 13.3866 26.7736 13.1251 26.7736C12.6257 26.7736 12.1978 27.1765 12.1978 27.6981V45.5005C12.1978 45.9983 12.602 46.4249 13.1251 46.4249H15.5028C16.0021 46.4249 16.4301 46.022 16.4301 45.5005V41.281L16.3588 37.0378C16.335 36.3503 17.1672 35.9948 17.6665 36.4926L22.3982 41.3284L27.2249 36.4452C27.6767 35.9711 28.4851 36.3266 28.4613 36.9667L28.3425 41.3284V45.5479C28.2949 46.022 28.6991 46.4249 29.2222 46.4249Z" fill="white"/>
<path d="M43.8927 33.7902L39.8506 27.2714C39.6841 27.0106 39.375 26.8447 39.0659 26.8447H36.3315C35.6182 26.8447 35.1665 27.627 35.5469 28.2433L41.1821 37.7253C41.2772 37.8675 41.301 38.0334 41.301 38.1994V45.5242C41.301 46.022 41.7052 46.4487 42.2283 46.4487H45.4382C45.9375 46.4487 46.3655 46.0457 46.3655 45.5242V37.9386L43.8927 33.7902Z" fill="white"/>
<path d="M85.693 27.7692V45.5242C85.693 46.022 86.0972 46.4487 86.6203 46.4487H88.998C89.4973 46.4487 89.9253 46.0457 89.9253 45.5242V27.7692C89.9253 27.2714 89.5211 26.8447 88.998 26.8447H86.6203C86.0972 26.8447 85.693 27.2477 85.693 27.7692Z" fill="white"/>
<path d="M102.194 34.857C100.245 34.6673 98.4376 34.2407 98.4376 32.4154C98.4376 31.8465 98.6753 30.0212 101.861 30.0212C103.478 30.0212 104.643 30.6138 105.119 31.6094C105.262 31.9176 105.594 32.1072 105.927 32.1072H108.21C108.828 32.1072 109.28 31.5146 109.09 30.9457C108.258 28.2433 105.547 26.5366 101.79 26.5366C97.2725 26.5366 94.229 28.8359 94.229 32.2494C94.229 35.8526 96.4878 37.7964 101.362 38.3179C103.621 38.5549 105.642 38.9342 105.642 40.7832C105.642 42.324 104.263 43.2485 101.957 43.2485C100.102 43.2485 98.818 42.6085 98.3425 41.4944C98.1998 41.1862 97.8669 40.9966 97.5103 40.9966H95.1088C94.5143 40.9966 94.0626 41.5418 94.2052 42.1107C94.9423 45.0975 97.7005 46.7806 102.004 46.7806C106.736 46.7806 109.922 44.4338 109.922 40.9491C109.969 38.4364 109.09 35.5207 102.194 34.857Z" fill="white"/>
<path d="M129.847 45.5005V27.7692C129.847 27.2714 129.443 26.8447 128.92 26.8447H126.542C126.043 26.8447 125.615 27.2477 125.615 27.7692V33.6006C125.615 34.0984 125.211 34.5251 124.688 34.5251H118.244C117.745 34.5251 117.317 34.1221 117.317 33.6006V27.7692C117.317 27.2714 116.912 26.8447 116.389 26.8447H114.012C113.512 26.8447 113.084 27.2477 113.084 27.7692V45.5242C113.084 46.022 113.488 46.4487 114.012 46.4487H116.389C116.889 46.4487 117.317 46.0457 117.317 45.5242V39.1001C117.317 38.6023 117.721 38.1756 118.244 38.1756H124.688C125.187 38.1756 125.615 38.5786 125.615 39.1001V45.5242C125.615 46.022 126.019 46.4487 126.542 46.4487H128.92C129.443 46.425 129.847 46.022 129.847 45.5005Z" fill="white"/>
<path d="M135.768 42.3477C134.27 42.3477 133.247 43.2248 133.247 44.5522C133.247 45.9034 134.222 46.7568 135.768 46.7568C137.313 46.7568 138.288 45.9034 138.288 44.5522C138.288 43.201 137.289 42.3477 135.768 42.3477Z" fill="white"/>
<path d="M141.593 27.7692V45.5242C141.593 46.022 141.997 46.4487 142.52 46.4487H144.898C145.397 46.4487 145.825 46.0457 145.825 45.5242V27.7692C145.825 27.2714 145.421 26.8447 144.898 26.8447H142.52C141.997 26.8447 141.593 27.2477 141.593 27.7692Z" fill="white"/>
<path d="M158.927 34.857C156.977 34.6673 155.17 34.2407 155.17 32.4154C155.17 31.8465 155.408 30.0212 158.594 30.0212C160.211 30.0212 161.376 30.6138 161.851 31.6094C161.994 31.9176 162.327 32.1072 162.66 32.1072H164.942C165.56 32.1072 166.012 31.5146 165.822 30.9457C164.99 28.2433 162.279 26.5366 158.522 26.5366C154.005 26.5366 150.961 28.8359 150.961 32.2494C150.961 35.8526 153.22 37.7964 158.094 38.3179C160.353 38.5549 162.374 38.9342 162.374 40.7832C162.374 42.324 160.995 43.2485 158.689 43.2485C156.834 43.2485 155.55 42.6085 155.075 41.4944C154.932 41.1862 154.599 40.9966 154.243 40.9966H151.841C151.247 40.9966 150.795 41.5418 150.938 42.1107C151.675 45.0975 154.433 46.7806 158.736 46.7806C163.468 46.7806 166.654 44.4338 166.654 40.9491C166.678 38.4364 165.798 35.5207 158.927 34.857Z" fill="white"/>
<path d="M49.5516 26.8447L44.9626 32.4628L47.4355 36.5874L54.9966 27.2003V26.8447H49.5516Z" fill="white"/>
<path d="M58.587 26.7736C58.587 26.7736 55.2344 21.6296 53.57 16.9123C50.6929 8.71041 51.5727 4.15907 53.3322 1.69376C55.0917 -0.771556 57.8974 -0.913786 59.6332 3.75608C61.3689 8.42595 63.6515 21.6059 64.8166 26.7499L58.587 26.7736Z" fill="white"/>
<path d="M82.483 17.9791C82.0788 20.1125 78.0604 19.2354 77.1807 18.2161C77.1569 18.1687 77.1093 18.145 77.0856 18.0976C77.0618 18.0502 76.9667 18.0976 76.9667 18.0502C76.9667 18.0502 76.9904 18.0502 77.038 18.0265C77.038 18.0739 77.038 18.1687 77.038 18.2872C76.5149 19.188 75.5163 22.5067 74.0896 26.7973H71.9972L68.3118 26.7736C68.3118 26.7736 68.6684 12.0765 69.8573 10.2038C71.0461 8.33116 72.9245 6.79034 77.1807 7.83335C81.4368 8.87637 82.9347 15.6797 82.483 17.9791Z" fill="white"/>
<path d="M63.0096 26.7498H61.3927C57.8261 19.5435 56.7324 17.3864 55.7575 13.0958C54.7113 8.49704 54.7589 5.58134 55.9953 5.22576C57.2555 4.87019 57.9213 7.14586 58.7535 10.0379C59.5143 12.4795 61.892 22.4829 63.0096 26.7498Z" fill="#F1BCB8"/>
<path d="M77.1569 18.1924C77.1569 18.2398 77.038 18.1687 77.0143 18.2872L76.0632 17.102C75.9681 16.9598 75.7303 16.9598 75.6352 17.102C73.5428 19.6384 71.9973 26.7499 71.9973 26.7499H70.428C70.8797 22.9571 71.1413 20.397 71.4742 18.5954C71.9022 16.2723 73.3526 11.3654 74.0897 13.3803C74.4701 14.3522 75.9205 16.462 77.1569 18.1924Z" fill="#F1BCB8"/>
<path d="M73.4715 26.7973V44.4101C73.4715 44.4101 73.4715 44.4101 66.7664 38.2705C59.6808 44.5523 59.6808 44.5523 59.6808 44.5523V26.8447C59.657 26.821 59.657 26.7973 59.657 26.7973H73.4715Z" fill="#FC7D68"/>
<path d="M66.8138 31.1353C66.9327 30.993 67.0754 30.8508 67.2181 30.7086C67.4796 30.4715 67.7887 30.2582 68.1216 30.116C68.6209 29.9263 69.0965 29.95 69.572 30.2108C70.1189 30.4952 70.4517 30.9693 70.5944 31.5857C70.642 31.8227 70.642 32.0598 70.6182 32.3205C70.5706 32.842 70.4042 33.3161 70.1664 33.7665C69.9049 34.2406 69.5958 34.6673 69.2391 35.0703C68.5734 35.8051 67.8125 36.4215 66.9803 36.9667C66.9327 36.9904 66.8614 37.0378 66.8138 37.0615C66.5047 36.8719 66.1956 36.6585 65.8865 36.4452C65.5299 36.1844 65.197 35.9 64.8879 35.5918C64.341 35.0703 63.8417 34.4777 63.4613 33.7902C63.2473 33.4109 63.1046 33.008 63.0333 32.5813C62.9619 32.1072 62.9619 31.6331 63.1522 31.1827C63.4137 30.6138 63.8179 30.2345 64.4123 30.0685C64.9354 29.9263 65.411 30.0211 65.8865 30.3056C66.2194 30.4952 66.481 30.756 66.7425 31.0405C66.7663 31.0879 66.7663 31.1116 66.8138 31.1353C66.7901 31.1353 66.8138 31.1353 66.8138 31.1353Z" fill="white"/>
<path d="M65.9103 35.0703C65.6963 35.0703 65.4823 34.9755 65.2445 34.7858C65.2207 34.7621 65.2207 34.7384 65.2445 34.691C65.2683 34.6673 65.2921 34.6673 65.3396 34.691C65.5774 34.9044 65.8152 34.9992 66.0292 34.9518C66.4334 34.8569 66.6712 34.3828 66.7187 34.288V32.439C66.7187 32.4153 66.7425 32.3679 66.79 32.3679C66.8376 32.3679 66.8614 32.3916 66.8614 32.439V34.3117V34.3354C66.8614 34.3591 66.576 34.9518 66.1005 35.0703C66.0292 35.0703 65.9816 35.0703 65.9103 35.0703Z" fill="#F1BCB8"/>
<path d="M67.6936 35.0703C67.6461 35.0703 67.5985 35.0703 67.551 35.0466C67.0517 34.9518 66.7663 34.3355 66.7426 34.3118V34.2881V32.4154C66.7426 32.3917 66.7663 32.3443 66.8139 32.3443C66.8614 32.3443 66.8852 32.368 66.8852 32.4154V34.2644C66.9328 34.3355 67.1943 34.8333 67.5985 34.9281C67.8125 34.9755 68.0503 34.8807 68.2881 34.6673C68.3118 34.6436 68.3594 34.6436 68.3832 34.6673C68.407 34.691 68.407 34.7385 68.3832 34.7622C68.1216 34.9755 67.9076 35.0703 67.6936 35.0703Z" fill="#F1BCB8"/>
<path d="M67.337 33.3635C67.0992 33.648 66.5285 33.648 66.2908 33.3635L65.839 32.8183L65.3872 32.2731C65.1494 31.9887 65.4348 31.6331 65.9103 31.6331H66.8139H67.7174C68.1929 31.6331 68.4783 31.9887 68.2405 32.2731L67.7887 32.8183L67.337 33.3635Z" fill="#F1BCB8"/>
<path d="M55.6149 35.5207L55.5911 35.497C56.566 34.5251 59.9423 32.2494 63.6516 33.5057L63.6278 33.5532C59.9185 32.2968 56.5897 34.5488 55.6149 35.5207Z" fill="#FC7D68"/>
<path d="M63.5801 32.5585C60.3465 30.4014 56.5183 31.7289 55.3295 32.4163L55.3057 32.3689C56.5183 31.6814 60.3465 30.354 63.6039 32.5111L63.5801 32.5585Z" fill="#FC7D68"/>
<path d="M56.8275 38.4601L56.7799 38.4364C57.4457 37.2275 60.0136 34.0747 63.9369 34.2407V34.2881C60.0374 34.1458 57.4933 37.2512 56.8275 38.4601Z" fill="#FC7D68"/>
<path d="M63.5802 33.2687C62.8906 33.0554 62.1773 32.9132 61.464 32.8895C60.7507 32.8658 60.0136 32.9606 59.3241 33.1502C58.6345 33.3398 57.945 33.6006 57.3268 33.9562C56.6848 34.288 56.0904 34.7147 55.5673 35.2125C56.0904 34.7147 56.6848 34.288 57.303 33.9325C57.945 33.5769 58.6107 33.2924 59.3003 33.1028C59.9898 32.9132 60.7269 32.7946 61.464 32.8183C62.2011 32.8183 62.9144 32.9606 63.6039 33.1739C63.6277 33.1739 63.6515 33.2213 63.6515 33.245C63.6515 33.2687 63.6277 33.2687 63.5802 33.2687Z" fill="white"/>
<path d="M63.5327 32.2731C62.9382 31.8938 62.2725 31.5619 61.5829 31.3723C60.8934 31.159 60.1801 31.0878 59.443 31.0641C58.7297 31.0641 57.9926 31.159 57.303 31.3249C56.5897 31.4908 55.924 31.7279 55.282 32.0835C55.9002 31.7279 56.5897 31.4671 57.303 31.3012C58.0164 31.1353 58.7297 31.0167 59.443 31.0167C60.1563 31.0167 60.8934 31.0878 61.6067 31.2775C62.2963 31.4671 62.9858 31.7753 63.5802 32.1783C63.604 32.202 63.6278 32.2257 63.604 32.2494C63.604 32.2968 63.5564 32.2968 63.5327 32.2731Z" fill="white"/>
<path d="M63.9131 34.0273C63.1997 34.0036 62.4864 34.0747 61.7731 34.2643C61.0836 34.454 60.4178 34.7384 59.7996 35.1177C59.1814 35.497 58.6108 35.9474 58.1114 36.4452C57.6121 36.943 57.1366 37.5119 56.7799 38.1519C57.1366 37.5119 57.5883 36.943 58.0877 36.4215C58.587 35.9 59.1576 35.4496 59.7758 35.0466C60.394 34.6673 61.0598 34.3354 61.7493 34.1458C62.4389 33.9562 63.176 33.8613 63.9131 33.8613C63.9368 33.8613 63.9606 33.885 63.9606 33.9325C63.9844 34.0036 63.9606 34.0273 63.9131 34.0273Z" fill="white"/>
<path d="M77.5849 35.5681C76.61 34.5962 73.2575 32.3443 69.572 33.6006L69.5482 33.5532C73.2575 32.2968 76.6338 34.5725 77.6087 35.5444L77.5849 35.5681Z" fill="#FC7D68"/>
<path d="M69.6433 32.6287L69.6196 32.5813C72.877 30.4241 76.7052 31.7516 77.9178 32.439L77.894 32.4865C76.6814 31.799 72.877 30.4715 69.6433 32.6287Z" fill="#FC7D68"/>
<path d="M76.3723 38.5312C75.7303 37.346 73.2813 34.3592 69.5245 34.3592C69.4294 34.3592 69.358 34.3592 69.2629 34.3592V34.3117C69.358 34.3117 69.4294 34.3117 69.5245 34.3117C73.3051 34.3117 75.7541 37.3223 76.4199 38.5075L76.3723 38.5312Z" fill="#FC7D68"/>
<path d="M69.5007 33.2924C70.1902 33.079 70.9273 32.9605 71.6406 32.9368C72.3777 32.9131 73.091 33.0316 73.8043 33.2213C74.4939 33.4109 75.1834 33.6954 75.8016 34.0509C76.4436 34.4065 77.038 34.8095 77.5374 35.331C77.0143 34.8332 76.4198 34.4302 75.7779 34.0747C75.1359 33.7428 74.4701 33.4583 73.7806 33.2687C73.091 33.079 72.3539 32.9842 71.6406 33.0079C70.9273 33.0316 70.214 33.1502 69.5245 33.3872C69.5007 33.3872 69.4531 33.3872 69.4531 33.3398C69.4531 33.2924 69.4769 33.2924 69.5007 33.2924Z" fill="white"/>
<path d="M69.5245 32.3209C70.1427 31.9416 70.8085 31.6335 71.498 31.4201C72.1875 31.2068 72.9246 31.1357 73.6617 31.1594C74.3988 31.1594 75.1121 31.2779 75.8017 31.4438C76.4912 31.6098 77.1807 31.8705 77.8227 32.2261C77.1807 31.8705 76.4912 31.6335 75.8017 31.4676C75.0883 31.3016 74.375 31.2068 73.6617 31.2068C72.9484 31.2068 72.2113 31.3016 71.5218 31.515C70.8322 31.7283 70.1902 32.0365 69.572 32.4157C69.5483 32.4395 69.5007 32.4157 69.5007 32.392C69.5007 32.3683 69.5007 32.3209 69.5245 32.3209Z" fill="white"/>
<path d="M69.2154 34.0273C69.9525 34.0273 70.6658 34.0984 71.3791 34.3117C72.0924 34.5014 72.7344 34.8095 73.3526 35.2125C73.9708 35.5918 74.5415 36.0659 75.0408 36.5874C75.5401 37.1089 75.9919 37.6778 76.3485 38.3179C75.9919 37.7015 75.5401 37.1326 75.017 36.6111C74.5177 36.1133 73.947 35.6392 73.3288 35.2836C72.7106 34.9044 72.0449 34.5962 71.3553 34.4303C70.6658 34.2406 69.9525 34.1695 69.2154 34.1932C69.1916 34.1932 69.144 34.1695 69.144 34.1458C69.144 34.0747 69.1678 34.0273 69.2154 34.0273Z" fill="white"/>
</svg>
